<?xml version="1.0" encoding="iso-8859-1"?>
<!-- Generator: Adobe Illustrator 22.1.0, SVG Export Plug-In . SVG Version: 6.00 Build 0)  -->
<svg version="1.1" id="&#x30EC;&#x30A4;&#x30E4;&#x30FC;_1"
	 xmlns="http://www.w3.org/2000/svg" xmlns:xlink="http://www.w3.org/1999/xlink" x="0px" y="0px" viewBox="0 0 26 90"
	 style="enable-background:new 0 0 26 90;" xml:space="preserve">
<g>
	<g>
		<path style="fill:#ffffff;" d="M5.553,81.614c0.58-0.481,0.612-1.063,0.863-1.541c-0.049-0.045-0.078-0.072-0.107-0.099
			c-0.043-0.064-0.076-0.002-0.022-0.034c0.293-0.18,0.254-0.512,0.423-0.75c0.165-0.233,0.26-0.506,0.302-0.788
			c0.008-0.055-0.016-0.143,0.014-0.161c0.345-0.204,0.192-0.604,0.423-0.865c0.206-0.232,0.172-0.567,0.281-0.85
			c0.103-0.267,0.022-0.594,0.022-0.883c0.091-0.103,0.204-0.029,0.307-0.073c0.191,0.278,0.629,0.336,0.75,0.616
			c0.153,0.353,0.513,0.441,0.764,0.654c0.265,0.224,0.219,0.591,0.521,0.727c-0.006,0.177-0.145,0.217-0.227,0.326
			c-0.019,0.262-0.148,0.52-0.229,0.789c-0.085,0.279-0.206,0.521-0.34,0.779c-0.184,0.354-0.396,0.723-0.448,1.157
			c-0.147,0.121-0.313,0.258-0.491,0.405c0.052,0.22-0.03,0.402-0.221,0.478c-0.232,0.092-0.037,0.391-0.221,0.409
			c-0.332,0.033-0.012,0.389-0.288,0.413c0.01,0.205-0.193,0.273-0.312,0.388c-0.139,0.134-0.232,0.288-0.301,0.453
			c-0.069,0.168-0.238,0.247-0.347,0.379c0.041,0.089,0.083,0.179,0.129,0.279c0.789,0.148,1.473,0.468,1.921,1.117
			c0.193,0.71,0.48,1.413,0.389,2.17c-0.011,0.089-0.039,0.174-0.06,0.258c-0.104,0.408-0.159,0.828-0.419,1.19
			c0.142,0.121,0.256,0.011,0.289-0.076c0.083-0.223,0.294-0.341,0.418-0.491c0.029-0.464,0.528-0.57,0.757-1.017
			c0,0.061-0.033-0.038,0.005-0.077c0.251-0.254,0.39-0.578,0.621-0.838c0.249-0.28,0.414-0.598,0.618-0.897
			c0.197-0.287,0.339-0.588,0.498-0.873c-0.159-0.239-0.431-0.268-0.62-0.358c-0.412-0.444-0.207-0.94-0.278-1.454
			c0.531,0.093,0.848,0.37,1.124,0.792c0,0.176,0,0.416,0,0.647c0.153,0.081,0.298,0.028,0.436,0.049
			c0.231,0.227,0.502,0.394,0.861,0.471c0.062,0.096,0.101,0.241,0.25,0.314c0.083-0.145,0.241-0.1,0.385-0.12
			c0.025-0.062,0.051-0.128,0.077-0.194c0.098-0.067,0.247,0.039,0.331-0.078c-0.407-0.144-0.814-0.289-1.224-0.435
			c0-0.08,0-0.154,0-0.225c-0.688-0.314-0.83-0.996-1.239-1.498c0.157-0.047,0.076-0.213,0.186-0.277
			c0.044,0.076,0.068,0.183,0.137,0.221c0.205,0.112,0.394,0.212,0.563,0.391c0.153,0.163,0.438,0.227,0.497,0.488
			c0.316,0.015,0.386,0.45,0.792,0.364c0.248-0.461,0.548-0.922,0.818-1.423c-0.49,0.045-0.889-0.198-1.331-0.157
			c-0.168-0.214-0.484-0.245-0.641-0.493c-0.554,0.221-1.077,0.428-1.601,0.637c-0.041,0.191-0.207,0.3-0.352,0.427
			c-0.079,0-0.16,0-0.254,0c-0.025,0.064-0.05,0.13-0.079,0.207c-0.091,0.009-0.188,0.019-0.285,0.028
			c-0.143,0.132-0.019,0.474,0.303,0.822c0.028,0.173,0.067,0.356-0.155,0.507c-0.194,0-0.414,0-0.65,0
			c-0.388-0.261-0.756-0.569-1.128-0.929c0.074-0.29-0.298-0.409-0.347-0.745c0.018-0.01,0.098-0.053,0.224-0.121
			c0.317,0.006,0.642,0.299,1.135,0.204c-0.156-0.111-0.327-0.121-0.391-0.238c-0.06-0.109-0.104-0.224-0.166-0.361
			c0.229-0.128,0.482,0,0.725-0.084c0.197-0.202,0.556-0.189,0.786-0.431c0.2-0.211,0.574-0.223,0.843-0.39
			c0.069-0.242-0.376-0.243-0.236-0.503c-0.137,0-0.218,0-0.293,0c-0.186-0.101,0.06-0.367-0.217-0.394
			c0.112-0.321,0.265-0.586,0.267-0.904c0.002-0.317-0.164-0.594-0.197-0.884c-0.042-0.369-0.436-0.422-0.662-0.736
			c0.314,0,0.495-0.092,0.726-0.178c-0.035-0.178,0.091-0.307,0.208-0.459c0.091-0.118,0.042-0.358,0.237-0.401
			c0.237-0.053,0.203-0.283,0.374-0.377c0.154-0.084,0.266-0.233,0.318-0.28c0.31-0.57,0.573-1.054,0.872-1.602
			c-0.38,0.109-0.719,0.162-0.955,0.439c-0.123,0-0.29,0.047-0.36-0.008c-0.297-0.237-0.714-0.322-0.968-0.572
			c-0.226-0.222-0.49-0.458-0.59-0.793c0.063-0.108,0.132-0.225,0.245-0.418c0.146,0.26,0.242,0.489,0.608,0.478
			c0.158-0.158,0.499-0.15,0.756-0.367c0.234-0.198,0.615-0.255,0.939-0.354c0.326-0.1,0.661-0.175,1.006-0.264
			c0.01-0.04,0.022-0.092,0.032-0.136c0.753-0.259,1.512-0.496,2.295-0.641c0.028-0.072,0.053-0.138,0.078-0.203
			c0.093,0,0.174,0,0.309,0c0.092-0.105,0.206-0.236,0.313-0.358c0.233,0.094,0.351-0.13,0.572-0.092
			c0.327,0.148,0.684,0.31,1.055,0.478c0.042,0.208,0.281,0.31,0.422,0.511c-0.44,0.018-0.685,0.283-0.902,0.581
			c-0.169,0-0.331,0-0.451,0c-0.487,0.328-1.045,0.337-1.55,0.492c-0.073,0.016-0.055,0.076-0.061,0.168
			c-0.639,0.068-1.18,0.447-1.843,0.537c0.206,0.034,0.386,0.117,0.577,0.193c0.047,0.111,0.077,0.24,0.248,0.324
			c0.59-0.183,0.968,0.307,1.485,0.474c0.003,0.184,0.213,0.275,0.272,0.368c0.007,0.239-0.184,0.112-0.244,0.249
			c0,0.691-0.001,1.424,0.001,2.157c0,0.089,0.014,0.169,0.057,0.261c0.112,0.239,0.093,0.247-0.063,0.56
			c0.393,0.426-0.191,0.869,0.075,1.355c0.658,0.001,1.366-0.223,2.062-0.092c0.094-0.09,0.158-0.17,0.281-0.136
			c0.02,0,0.044-0.006,0.061,0.001c0.225,0.093,0.424,0.249,0.69,0.246c0.054,0.28,0.458,0.26,0.535,0.534
			c-0.087,0.13-0.141,0.279-0.15,0.431c-0.361,0.295-0.799,0.479-1.203,0.813c-0.036,0-0.156,0-0.26,0
			c-0.176,0.077-0.247,0.272-0.449,0.257c-0.042,0.082,0.033,0.106,0.069,0.129c0.321,0.2,0.699,0.556,0.868,0.83
			c-0.164,0.044-0.288,0.179-0.485,0.159c-0.182-0.018-0.368-0.004-0.543-0.004c-0.237,0.118-0.182,0.545-0.622,0.442
			c-0.197,0.307-0.684,0.352-0.763,0.712c-0.17,0.162-0.352,0.045-0.516,0.113c-0.006,0.073-0.011,0.145-0.019,0.243
			c0.332,0.119,0.453,0.458,0.739,0.58c0.027,0.213-0.131,0.146-0.165,0.169c-0.418,0.922-0.744,1.853-1.704,2.448
			c0.3,0.041,0.477,0.298,0.771,0.269c0.201-0.02,0.065,0.201,0.253,0.243c0.464,0.104,0.885,0.348,1.391,0.33
			c0.273-0.01,0.559-0.065,0.816,0.102c0.043,0.028,0.154,0.035,0.226-0.029c0.195-0.172,0.414-0.031,0.699-0.104
			c-0.105,0.114-0.14,0.152-0.188,0.204c0.059,0.042,0.122,0.086,0.232,0.165c0.198,0,0.46,0,0.729,0
			c0.016,0.069,0.027,0.121,0.045,0.198c0.182,0,0.375,0,0.561,0c0.071-0.058-0.007-0.162,0.139-0.203
			c0.038-0.004,0.143-0.013,0.139,0.087c-0.009,0.228,0.271,0.116,0.33,0.254c0.279-0.143,0.547,0.239,0.829,0.015
			c0.248,0.18,0.525,0.066,0.78,0.102c0.025-0.087,0.039-0.138,0.057-0.2c0.367,0.181,0.78,0.062,1.178,0.17
			c0.37,0.101,0.659,0.391,1.073,0.367c0.114,0.074,0.08,0.242,0.259,0.322c0.29,0.007,0.601,0.092,0.889,0.243
			c0.28,0.147,0.646,0.08,0.894,0.305c-0.006,0.036-0.012,0.072-0.025,0.147c-0.211,0-0.432-0.003-0.653,0.001
			c-0.275,0.005-0.542-0.011-0.817,0.101c-0.242,0.098-0.564-0.09-0.805,0.125c-0.387-0.022-0.788-0.007-1.134,0.127
			c-0.432,0.167-0.859,0.241-1.284,0.212c-0.232,0.097-0.192,0.288-0.24,0.433c-0.332,0.097-0.257-0.27-0.482-0.326
			c-0.177,0.043-0.101,0.308-0.339,0.349c-0.211,0.01-0.226-0.183-0.311-0.344c-0.168,0-0.348,0-0.507,0
			c-0.101-0.099-0.027-0.2-0.081-0.329c-0.499,0.059-0.957-0.154-1.436-0.284c-0.107-0.029-0.176-0.145-0.146-0.279
			c-0.191,0-0.351,0-0.487,0c-0.485-0.311-0.948-0.607-1.552-0.588c-0.091-0.151-0.118-0.328-0.393-0.346
			c-0.134-0.009-0.414-0.009-0.417-0.28c-0.001-0.063-0.105-0.028-0.159-0.043c-0.22-0.061-0.238-0.078-0.467-0.309
			c-0.053-0.054-0.113-0.114-0.183-0.139c-0.335-0.123-0.651-0.294-1.058-0.361c-0.113,0.104-0.221,0.257-0.373,0.327
			c-0.168,0.077-0.318,0.124-0.341,0.323c-0.007,0.062-0.104,0.032-0.158,0.049c-0.397,0.124-0.706,0.413-1.139,0.487
			c-0.115,0.019-0.353,0.08-0.344,0.298c-0.197-0.068-0.319,0.131-0.492,0.124c-0.112-0.076-0.051-0.178-0.072-0.28
			c0.261-0.166,0.575-0.261,0.859-0.382c0.326-0.139,0.507-0.395,0.774-0.572c0.276-0.183,0.494-0.438,0.761-0.684
			c-0.408-0.349-1.059-0.339-1.327-0.883c0.275,0,0.508,0,0.768,0c0.045,0.023,0.003,0.088,0.037,0.183
			c0.385-0.095,0.782,0.292,1.156,0c0.155-0.545,0.337-1.041,0.628-1.499c0.068-0.138,0.046-0.277,0.009-0.454
			c-0.198,0.094-0.356,0.132-0.473,0.3c-0.078,0.111-0.293,0.136-0.437,0.215c-0.168,0.092-0.237,0.282-0.468,0.335
			c-0.12,0.027-0.359,0.076-0.343,0.314c-0.146-0.076-0.074-0.293-0.312-0.29c0.001-0.001-0.071,0.029-0.077,0.067
			c-0.031,0.216-0.291,0.215-0.384,0.356c-0.1,0.152-0.165,0.294-0.385,0.364c-0.177,0.056-0.232,0.287-0.426,0.391
			c-0.181,0.097-0.32,0.263-0.52,0.352c-0.136,0.061-0.061,0.201-0.089,0.305c-0.195,0.171-0.427,0.322-0.589,0.507
			c-0.11,0.126-0.385,0.194-0.261,0.442c-0.137,0-0.218,0-0.296,0c-0.2,0.408-0.707,0.357-1.029,0.581
			c-0.18,0.404,0.311,0.726,0.179,1.138c-0.244-0.16-0.236-0.467-0.557-0.55c-0.116,0.118,0.095,0.391-0.226,0.513
			c-0.118,0-0.297,0-0.521,0c-0.185-0.066-0.111-0.385-0.416-0.445c-0.209-0.041-0.327-0.247-0.404-0.44c-0.123,0-0.246,0-0.37,0
			c-0.139-0.085,0.008-0.251-0.127-0.351c-0.129-0.095-0.091-0.274-0.042-0.365c0.063-0.119,0.132-0.22,0.099-0.404
			c0.116-0.089,0.257-0.196,0.409-0.313c-0.226-0.202,0.013-0.393-0.021-0.593c-0.033-0.192-0.054-0.405,0.117-0.572
			c-0.226-0.287-0.189-0.64-0.098-0.91c0.1-0.298,0.072-0.578,0.093-0.866c0.017-0.244,0.004-0.49,0.004-0.769
			c-0.091-0.122-0.3-0.203-0.272-0.435c-0.669,0.278-0.941,0.817-1.228,1.255c-0.218,0.066-0.277-0.2-0.452-0.052
			c0.054,0.1,0.109,0.202,0.163,0.301c0.067,0.005,0.134-0.016,0.182,0.059c-0.253,0.074-0.402,0.269-0.6,0.441
			c-0.006,0.112-0.012,0.239-0.018,0.348c-0.113,0.183-0.295,0.196-0.51,0.168c0.078,0.105,0.119,0.161,0.146,0.197
			c0.015,0.176-0.128,0.128-0.2,0.161c-0.087,0.084-0.021,0.183-0.055,0.294c-0.36,0.22-0.566,0.613-0.963,0.932
			c0.033,0.171-0.077,0.339-0.365,0.372c-0.013,0.101-0.024,0.19-0.038,0.304c-0.361,0.101-0.545,0.447-0.877,0.59
			c-0.131-0.089-0.069-0.192-0.092-0.302c0.375-0.239,0.517-0.656,0.807-0.977c0.265-0.293,0.416-0.666,0.622-1.003
			c0.039,0,0.08,0,0.172,0c-0.118-0.433,0.329-0.69,0.423-1.117c0.076-0.07,0.192-0.177,0.32-0.294
			c0.001-0.189,0.041-0.355,0.187-0.541c0.206-0.262,0.415-0.575,0.3-0.925c0.169-0.155,0.314-0.288,0.467-0.429
			c0.07-0.113,0.013-0.247,0.036-0.372c0.116-0.107,0.232-0.213,0.374-0.344c-0.163-0.304,0.171-0.47,0.29-0.704
			c0.122-0.239,0.193-0.493,0.312-0.73C5.795,81.631,5.739,81.566,5.553,81.614z M12.09,76.948
			c-0.031,0.531-0.031,0.531,0.164,0.892c0.117-0.065,0.162-0.201,0.332-0.226c0.124-0.018,0.233-0.114,0.351-0.171
			c0.118-0.056,0.239-0.152,0.358-0.15c0.205,0.002,0.043-0.254,0.257-0.243c0.272,0.014,0.502-0.128,0.644-0.325
			c0.12-0.167,0.299-0.079,0.442-0.158c0-0.236,0-0.475,0-0.713c-0.088-0.049-0.117-0.167-0.288-0.153
			c-0.229,0.231-0.705,0.23-0.826,0.637C13.049,76.559,12.701,77.018,12.09,76.948z M13.731,80.108
			c0.356,0.031,0.703-0.012,1.042-0.16c0-0.145,0.041-0.307-0.01-0.44c-0.064-0.168,0.273-0.226,0.067-0.418
			c-0.715,0.112-1.403,0.402-2.143,0.489c0.017,0.12-0.047,0.187-0.137,0.254c0.037,0.24-0.049,0.498,0.045,0.723
			c0.251,0.042,0.169-0.147,0.276-0.219C13.168,80.352,13.486,80.35,13.731,80.108z M14.719,77.406
			c-0.144,0.08-0.21,0.21-0.409,0.231c-0.214,0.023-0.437,0.131-0.615,0.252c-0.375,0.253-0.424,0.294-0.714,0.299
			c-0.178,0.003-0.356,0.001-0.624,0.001c0.206,0.242,0.183,0.476,0.238,0.67c0.242,0.046,0.181-0.129,0.249-0.198
			c0.343-0.042,0.672-0.117,1.001-0.227c0.356-0.118,0.691,0.101,1.035,0.179C14.932,78.2,14.913,77.806,14.719,77.406z
			 M15.724,83.959c0.055-0.311,0.302-0.568,0.379-0.854c0.08-0.299,0.394-0.509,0.339-0.826c-0.303,0-0.604,0-0.949,0
			c0.067,0.162-0.01,0.28-0.064,0.363c0.186,0.448,0.001,0.902,0.12,1.317C15.619,83.959,15.659,83.959,15.724,83.959z
			 M16.918,81.158c0.526-0.235,0.496-0.619,0.644-0.939c-0.287,0.191-0.6,0.093-0.911,0.129c-0.064,0.323-0.37,0.455-0.732,0.697
			C16.385,80.95,16.695,81.219,16.918,81.158z M15.74,80.991c-1.007-0.363-1.079-0.105-1.931,0.069
			c0.047,0.09,0.094,0.181,0.148,0.285c0.169,0,0.347,0,0.528,0c0.029-0.067,0.056-0.132,0.094-0.219
			C14.972,81.21,15.321,80.932,15.74,80.991z M16.135,81.635c-0.296-0.15-0.433,0.045-0.571,0.192
			c-0.096,0.102-0.099,0.229-0.014,0.292c0.3,0.108,0.13-0.2,0.312-0.199C16.024,81.92,16.111,81.821,16.135,81.635z M6.53,83.564
			c-0.112-0.073-0.19-0.106-0.241,0.017C6.361,83.642,6.429,83.638,6.53,83.564z M16.19,89.051c0.057-0.037,0.057-0.075,0-0.112
			C16.133,88.976,16.133,89.014,16.19,89.051z M11.632,77.509c0.057-0.037,0.057-0.075,0-0.112
			C11.575,77.434,11.575,77.472,11.632,77.509z"/>
		<path style="fill:#ffffff;" d="M7.352,38.582c-0.294-0.037-0.512,0.2-0.78,0.112c-0.243-0.08-0.422,0.25-0.724,0.041
			c-0.172-0.119-0.506-0.041-0.862-0.055c0.163-0.121,0.341-0.126,0.398-0.245c0.107-0.224,0.328-0.331,0.546-0.409
			c0.231-0.083,0.374-0.257,0.549-0.387c0.313-0.233,0.294-0.246,0.474-0.303c0.323-0.102,0.641-0.216,0.955-0.34
			c0.104-0.041,0.214-0.107,0.215-0.237c-0.005-0.02-0.004-0.042-0.016-0.054c-0.081-0.089-0.192-0.023-0.296-0.05
			c-0.262-0.139-0.206-0.531-0.551-0.617c0.017-0.275-0.219-0.514-0.071-0.888c-0.199,0.093-0.271,0.197-0.384,0.278
			c-0.75-0.315-0.964-1.08-1.511-1.546c-0.007-0.27-0.247-0.491-0.076-0.773c-0.493-0.198-0.272-0.862-0.87-0.994
			c-0.129-0.148-0.124-0.417-0.41-0.494c-0.058-0.016-0.102-0.094-0.135-0.169c-0.148-0.329-0.318-0.65-0.586-0.831
			c-0.044-0.141,0.03-0.162,0.075-0.228c-0.085-0.099-0.131-0.224-0.084-0.364c0.034-0.015,0.072-0.046,0.103-0.042
			c0.226,0.034,0.369,0.135,0.656,0.299c0.272,0.155,0.579,0.261,0.876,0.375c0.243,0.094,0.471,0.146,0.618,0.416
			c0.14,0.256,0.445,0.436,0.677,0.649c-0.006,0.301,0.175,0.466,0.472,0.546c0.101,0.127-0.039,0.297,0.085,0.419
			c0.101-0.029,0.057-0.119,0.097-0.19c0.502-0.033,0.778-0.493,1.279-0.615c0.042-0.208,0.267-0.319,0.426-0.506
			c-0.357-0.134-0.533-0.444-0.782-0.716c-0.471-0.022-0.914,0.111-1.4,0.232c-0.557-0.161-0.876-0.668-1.364-0.928
			c-0.076-0.18-0.025-0.307,0.169-0.439c0.309,0.046,0.651-0.031,1.003-0.151c0.042-0.069,0.039-0.196,0.159-0.25
			c0.618-0.274,1.08-0.751,1.658-1.078c0.084-0.048,0.185-0.076,0.249-0.124c0.122-0.091,0.309-0.101,0.363-0.301
			c0.04-0.148,0.279-0.171,0.432-0.242c0.339-0.158,0.754-0.24,1.005-0.474c0.207-0.194,0.459-0.187,0.677-0.392
			c0.001-0.211,0.391-0.276,0.425-0.559c0.167-0.014,0.272-0.204,0.424-0.172c0.234,0.041,0.291,0.172,0.33,0.318
			c0.634,0.193,1.332,0.185,1.948,0.513c-0.041,0.707-0.372,1.362-0.381,2.07c-0.35,0.27-0.358,0.686-0.476,1.053
			c-0.083,0.257-0.13,0.506-0.334,0.726c-0.238,0.256-0.286,0.609-0.386,0.923c-0.08,0.252-0.121,0.531-0.182,0.787
			c-0.059,0.247-0.256,0.476-0.215,0.761c0.003,0.018,0.006,0.036,0.008,0.054c0.283,0.186,0.519-0.113,0.789-0.064
			c0.135-0.192,0.412-0.164,0.58-0.374c0.192-0.239,0.595-0.324,0.84-0.54c0.4-0.352,0.853-0.613,1.344-0.831
			c0.301-0.507,0.916-0.495,1.393-0.712c0.05-0.023,0.112-0.03,0.169-0.032c0.163-0.006,0.377,0.051,0.477-0.023
			c0.141-0.105,0.307-0.062,0.424-0.111c0.02-0.087-0.015-0.15,0.074-0.2c0.163-0.033,0.355,0.009,0.544-0.106
			c0.124-0.075,0.329-0.034,0.499-0.117c0.161-0.079,0.406,0.069,0.558-0.122c0.172,0.199,0.327-0.072,0.519-0.014
			c0.185,0.056,0.406,0.012,0.611,0.012c0.185,0,0.37,0,0.554,0c0.205,0,0.411,0,0.658,0c0.143,0.222,0.483,0.293,0.617,0.567
			c0.081,0,0.163,0,0.236,0c0.418,0.38,0.926,0.677,1.156,1.204c0.049,0.137-0.179,0.228-0.102,0.389
			c0.062,0.128,0.138,0.25,0.217,0.391c-0.056,0.182-0.244,0.166-0.444,0.176c0.002,0.196-0.11,0.362-0.207,0.577
			c-0.303-0.203-0.626-0.191-0.898,0.023c-0.185,0.146-0.424-0.015-0.613,0.168c-0.127,0.123-0.377,0.179-0.566,0.125
			c-0.125,0.066-0.034,0.188-0.177,0.236c-0.208,0.07-0.419,0.078-0.627,0.117c-0.205,0.039-0.369,0.173-0.587-0.004
			c-0.087-0.071-0.259-0.001-0.364,0.093c-0.106-0.119-0.005-0.258-0.062-0.372c0.385-0.147,0.585-0.466,0.875-0.685
			c0-0.08,0-0.155,0-0.238c0.427-0.33,0.688-0.762,0.934-1.294c-0.608,0.038-1.146-0.116-1.666,0.11
			c-0.452-0.087-0.812,0.26-1.253,0.226c-0.077,0.137-0.375,0.035-0.361,0.283c0.002,0.038-0.076,0.109-0.125,0.115
			c-0.458,0.055-0.754,0.416-1.171,0.522c-0.152,0.295-0.389,0.504-0.685,0.666c-0.101,0.056-0.232,0.123-0.268,0.212
			c-0.201,0.509-0.876,0.568-1.125,1.024c-0.274,0.019-0.452,0.25-0.757,0.248c-0.253-0.002-0.507,0.214-0.76-0.015
			c-0.379,0.068-0.726-0.079-0.973-0.279c-0.179-0.145-0.384-0.253-0.538-0.449c-0.333,0.4-0.306,0.868-0.515,1.257
			c-0.163,0.034-0.287,0.188-0.481,0.15c-0.194-0.033-0.21-0.195-0.288-0.351c-0.078,0.151-0.147,0.284-0.228,0.44
			c-0.181,0.154-0.521,0.07-0.684,0.293c0,0.211,0,0.413,0,0.637c0.158,0,0.306,0.025,0.437-0.007c0.123-0.03,0.217,0.23,0.34,0.009
			c0.058,0.05,0.115,0.099,0.212,0.183c-0.103,0.057-0.203,0.112-0.265,0.146c0,0.172,0,0.285,0,0.384
			c-0.09,0.204-0.37,0.158-0.496,0.426c0,0.32,0.02,0.732-0.01,1.142c-0.012,0.168,0.166,0.239,0.141,0.407
			c-0.039,0.262,0.061,0.538-0.148,0.803c0.43-0.198,0.977-0.132,1.174-0.641c0.15-0.062,0.351-0.097,0.481-0.233
			c0.162-0.169,0.358-0.282,0.582-0.351c0.064-0.02,0.13-0.047,0.142-0.087c0.115-0.402,0.638-0.421,0.766-0.675
			c0.122-0.165,0.001-0.299,0.147-0.369c0.106,0.117,0.026,0.254,0.061,0.421c-0.122,0.09-0.265,0.195-0.385,0.284
			c0.023,0.179-0.032,0.279-0.132,0.388c-0.119,0.13-0.338,0.129-0.409,0.343c-0.046,0.139-0.237,0.242-0.199,0.431
			c-0.233,0.075-0.29,0.31-0.47,0.435c-0.097,0.068-0.176,0.158-0.263,0.238c0,0.113,0,0.226,0,0.358
			c-0.463,0.269-0.58,0.828-1.011,1.116c-0.426,0.285-0.564,0.759-0.954,1.008c-0.007,0.113-0.011,0.185-0.014,0.241
			c-0.191,0.175-0.337,0.408-0.546,0.477c-0.251,0.082-0.23,0.317-0.417,0.417C7.932,43.722,7.768,43.889,7.567,44
			c-0.078,0.043-0.185,0.016-0.193,0.151C7.37,44.21,7.289,44.305,7.23,44.314c-0.402,0.062-0.727,0.326-1.126,0.37
			c-0.291,0.032-0.567-0.009-0.85-0.162c-0.178-0.096-0.291-0.312-0.538-0.3c-0.065-0.255-0.39-0.269-0.517-0.472
			c-0.17-0.272-0.353-0.538-0.548-0.833c0.214-0.036,0.363-0.047,0.548,0.028c0.708,0.286,0.887,0.086,1.421-0.208
			c0.132-0.073,0.278-0.126,0.363-0.3c0.09-0.183,0.294-0.346,0.54-0.407c0.227-0.056,0.366-0.188,0.428-0.394
			c0.477-0.185,0.841-0.558,1.355-0.683c0.027-0.007,0.041-0.057,0.084-0.122c-0.154-0.152-0.317-0.312-0.516-0.508
			c0.105-0.424-0.244-0.848-0.096-1.321C7.629,38.866,7.49,38.738,7.352,38.582c0.209,0.013,0.382,0.002,0.516-0.12
			c0.163,0.07,0.302,0.204,0.496,0.07c-0.01-0.169,0.047-0.35-0.046-0.533c-0.289,0.1-0.552,0.19-0.817,0.282
			C7.583,38.435,7.367,38.466,7.352,38.582z M9.505,33.777c-0.044,0.347-0.036,0.649,0.017,0.97c0.122-0.264,0.442-0.01,0.573-0.194
			c-0.037-0.329-0.333-0.487-0.474-0.723c0.178-0.023,0.115-0.177,0.093-0.257c-0.042-0.157,0.169-0.211,0.137-0.332
			c-0.064-0.082-0.119-0.15-0.23-0.291C9.621,33.314,9.621,33.572,9.505,33.777z M10.658,30.652c0.04-0.037,0.084-0.059,0.096-0.091
			c0.226-0.635,0.329-1.299,0.562-1.934c0.061-0.165,0.009-0.366,0.009-0.625c-0.233,0.251-0.475,0.347-0.736,0.441
			c0.025,0.097-0.03,0.174-0.116,0.227c-0.224,0.137-0.441,0.294-0.686,0.389c-0.116,0.045-0.271,0.093-0.28,0.173
			c-0.03,0.261-0.279,0.282-0.443,0.388c-0.22,0.141-0.462,0.255-0.689,0.377c0.059,0.116,0.106,0.207,0.154,0.3
			c0.251,0.083,0.491,0.191,0.677,0.395c0.241-0.115,0.432-0.298,0.775-0.238c0.037,0.049,0.107,0.141,0.15,0.198
			C10.347,30.652,10.508,30.652,10.658,30.652z M7.278,34.583c0.074,0.004,0.074,0.144,0.246,0.124
			c0.198-0.419,0.403-0.854,0.627-1.328c-0.247,0-0.425,0-0.602,0c-0.259-0.026-0.347-0.351-0.68-0.339
			c0.149,0.468,0.432,0.848,0.508,1.256C7.362,34.404,7.236,34.413,7.278,34.583z M7.999,35.358
			c0.058,0.065,0.127,0.073,0.251,0.017c-0.047-0.119,0.052-0.267-0.094-0.459C8.158,35.124,7.975,35.203,7.999,35.358z
			 M10.277,32.245c0.057-0.037,0.057-0.074,0-0.111C10.22,32.171,10.22,32.209,10.277,32.245z M9.845,32.869
			c-0.04-0.053-0.081-0.053-0.121,0C9.764,32.922,9.805,32.922,9.845,32.869z"/>
		<path style="fill:#ffffff;" d="M11.418,13.915c0.076-0.137,0.178-0.093,0.278-0.163c-0.041-0.501,0.065-1.004,0.368-1.526
			c-0.024-0.504,0.048-1.053,0.231-1.599c0.087-0.258,0.015-0.561,0.015-0.849c-0.144-0.101-0.315-0.053-0.468-0.043
			c-0.157,0.01-0.261-0.119-0.38-0.11c-0.219,0.016-0.077-0.371-0.386-0.247c-0.15,0.06-0.198-0.227-0.385-0.214
			c-0.191,0.013-0.309-0.142-0.477-0.171C9.918,8.943,9.86,8.686,9.683,8.486c-0.271,0.067-0.409-0.13-0.571-0.29
			c0.057-0.052,0.115-0.105,0.18-0.166c0.3,0,0.607,0.003,0.913-0.001c0.181-0.003,0.338,0.056,0.507,0.103
			c0.332,0.091,0.655-0.047,0.969-0.148c0.013-0.052,0.025-0.104,0.041-0.17c0.354,0.04,0.576-0.288,0.935-0.244
			c0.065-0.318-0.059-0.644,0.146-0.923c-0.137-0.233,0.021-0.465,0.004-0.699c-0.019-0.263,0.068-0.55-0.02-0.787
			c-0.162-0.436-0.053-0.896-0.215-1.331c-0.048-0.13-0.087-0.304-0.164-0.386C12.121,3.14,11.98,2.777,11.81,2.422
			c-0.1-0.209-0.103-0.207-0.055-0.522c0.176,0.061,0.315,0.128,0.444,0.273c0.122,0.138,0.338,0.216,0.526,0.291
			c0.367,0.147,0.724,0.273,0.947,0.63c0.141,0.225,0.447,0.333,0.725,0.452c0.003,0.067,0.007,0.14,0.012,0.247
			c0.674,0.435,0.737,1.152,0.891,1.834c0.152,0.09,0.233-0.028,0.292-0.11c0.249-0.345,0.564-0.46,1.045-0.073
			c0.328,0.263,0.717,0.524,1.189,0.581c0.191,0.15,0.21,0.431,0.482,0.512c0.03-0.027,0.059-0.054,0.128-0.118
			c0.009,0.234,0.093,0.415,0.343,0.571c-0.187,0.015-0.284,0.022-0.383,0.03c-0.078,0.08-0.049,0.212-0.171,0.276
			c-0.087,0.046-0.152,0.123-0.121,0.264c-0.468-0.044-0.838,0.284-1.3,0.246c-0.059,0.037-0.064,0.091-0.054,0.172
			c-0.382,0.089-0.755,0.213-1.065,0.412c-0.094,0.171-0.179,0.327-0.272,0.498c-0.115,0.755-0.258,1.525-0.803,2.162
			c-0.105,0.123-0.064,0.241-0.113,0.356c-0.117,0.278-0.336,0.512-0.387,0.807c-0.071,0.011-0.139-0.022-0.202,0.079
			c0,0.091,0,0.218,0,0.352c-0.075,0.014-0.131,0.025-0.19,0.036c-0.2,0.466-0.341,0.96-0.652,1.387
			c-0.015,0.526-0.455,0.883-0.617,1.357c-0.14,0.107-0.28,0.215-0.385,0.295c0,0.211,0,0.362,0,0.512
			c-0.156,0.23-0.474,0.137-0.662,0.302c-0.258,0.252-0.325,0.643-0.686,0.838c0.069,0.065,0.166,0.12,0.067,0.276
			c-0.054,0.067-0.211-0.066-0.3,0.035c-0.015,0.053-0.03,0.104-0.05,0.175c-0.132,0-0.27,0-0.387,0
			c-0.153,0.139-0.049,0.215,0.041,0.294c-0.26,0.062-0.395,0.337-0.707,0.331c-0.087-0.002-0.173,0.14-0.173,0.248
			c-0.347,0.161-0.686,0.319-1.073,0.498c-0.291-0.084-0.592,0.163-0.933,0.116c-0.089,0.042-0.047,0.133-0.085,0.189
			c-0.096,0.068-0.198,0.026-0.308,0.032c-0.024-0.063-0.049-0.128-0.08-0.208c-0.483,0-0.972,0-1.435,0
			c-0.254-0.135-0.478-0.266-0.75-0.269c0.008-0.078,0.011-0.114,0.017-0.176c0.296-0.104,0.546,0.18,0.852,0.099
			c0.284-0.075,0.598,0.078,0.888-0.083c0.259-0.144,0.614,0.118,0.823-0.186c0.086,0.061,0.132,0.093,0.179,0.126
			c0.095-0.038,0.261-0.058,0.283-0.121c0.105-0.302,0.345-0.408,0.648-0.476c0.124-0.028,0.149-0.242,0.327-0.167
			c0.121-0.198,0.139-0.403,0.396-0.503c0.302-0.117,0.271-0.454,0.444-0.709c0.246-0.106,0.423-0.325,0.618-0.559
			c0.176-0.211,0.384-0.413,0.572-0.626c0.198-0.223,0.384-0.446,0.462-0.742c-0.017-0.017-0.055-0.056-0.093-0.095
			c0.077-0.07,0.149-0.137,0.222-0.204c-0.009-0.086-0.153-0.12-0.099-0.24c0.26-0.08,0.413-0.29,0.612-0.454
			c-0.034-0.031-0.048-0.055-0.063-0.056C11.571,13.912,11.509,13.915,11.418,13.915z M10.524,16.856
			c0.057-0.037,0.057-0.075,0-0.112C10.466,16.781,10.466,16.819,10.524,16.856z M9.785,17.196c0.057-0.037,0.057-0.075,0-0.112
			C9.727,17.121,9.727,17.159,9.785,17.196z"/>
		<path style="fill:#ffffff;" d="M17.572,46.722c-0.252,0-0.496,0-0.776,0c-0.054-0.32-0.374-0.379-0.66-0.483c0-0.078,0-0.151,0-0.22
			c-0.129-0.074-0.252-0.128-0.296-0.281c-0.038-0.133-0.241-0.102-0.328-0.204c0.008-0.107-0.04-0.229,0.093-0.304
			c-0.05-0.217-0.293-0.369-0.201-0.634c-0.139-0.01-0.236-0.018-0.334-0.025c-0.058-0.053-0.116-0.107-0.174-0.16
			c0-0.113,0-0.226-0.001-0.339c-0.33-0.111-0.33-0.433-0.477-0.59c-0.06-0.222,0.141-0.306,0.134-0.455
			c0.072-0.024,0.143-0.047,0.211-0.069c0.042-0.248-0.078-0.436-0.247-0.587c-0.315-0.28-0.597-0.582-0.844-0.924
			c0.072-0.024,0.143-0.048,0.221-0.074c0.01-0.086,0.021-0.175,0.03-0.253c0.036-0.06,0.051-0.043,0.096-0.01
			c0.331,0.248,0.767,0.359,1.033,0.706c0.077,0.101,0.322,0.134,0.474,0.144c0.259,0.017,0.5,0.079,0.78,0.155
			c0.112-0.226,0.214-0.445,0.33-0.659c0.034-0.062,0.121-0.096,0.108-0.186c-0.057-0.407,0.182-0.783,0.134-1.198
			c-0.028-0.242,0.145-0.478,0.12-0.744c-0.023-0.248-0.079-0.516,0.112-0.746c0.02-0.024,0.007-0.074,0.002-0.111
			c-0.084-0.651,0.199-1.283,0.119-1.931c-0.024-0.196,0.191-0.314,0.137-0.521c-0.04-0.152,0.027-0.306,0.095-0.467
			c0.083-0.197,0.017-0.445,0.021-0.671c0.002-0.126-0.054-0.273,0.139-0.318c-0.266-0.529-0.311-1.08-0.516-1.578
			c0.093-0.107,0.205-0.046,0.309-0.067c0.451,0.383,0.806,0.844,1.157,1.283c0.074,0.203-0.068,0.415,0.13,0.599
			c0.059,0.054,0.014,0.239-0.023,0.37c-0.085,0.309-0.273,0.621-0.201,0.936c0.148,0.643,0.011,1.303,0.136,1.929
			c0.148,0.745,0.067,1.48,0.094,2.218c0.027,0.753-0.004,1.507,0.013,2.26c0.005,0.209-0.172,0.358-0.141,0.576
			c0.024,0.169,0.009,0.341-0.085,0.528c-0.115,0.231-0.052,0.523-0.13,0.795c-0.082,0.288-0.152,0.583-0.23,0.875
			c-0.057,0.213-0.036,0.443-0.053,0.717C17.867,46.177,17.659,46.412,17.572,46.722z"/>
		<path style="fill:#ffffff;" d="M21.184,18.832c0.119,0.118,0.119,0.175,0.119,0.235c-0.119,0.108-0.271,0.027-0.434,0.062
			c-0.139-0.246-0.469-0.312-0.634-0.577c-0.156-0.252-0.537-0.31-0.705-0.564c-0.097,0-0.178,0-0.26,0
			c-0.207-0.15-0.239-0.426-0.496-0.546c0.004-0.001-0.016-0.001-0.024,0.009c-0.15,0.178-0.254-0.124-0.405-0.031
			c-0.063,0.039-0.12-0.035-0.142-0.078c-0.123-0.235-0.555-0.106-0.597-0.43c-0.239-0.106-0.477-0.213-0.717-0.319
			c-0.189-0.083-0.355-0.196-0.591-0.201c-0.158-0.003-0.37-0.04-0.424-0.269c-0.024-0.102-0.187-0.027-0.272-0.061
			c-0.361-0.146-0.732-0.222-1.129-0.227c-0.333-0.005-0.647-0.186-0.98-0.099c-0.084-0.066-0.095-0.131-0.038-0.219
			c0.046-0.005,0.105-0.022,0.16-0.015c0.525,0.06,1.03-0.103,1.547-0.11c0.599-0.008,1.187,0.182,1.793,0.108
			c0.541,0.21,1.13,0.214,1.69,0.343c0.052,0.012,0.09,0.071,0.113,0.089c0.36-0.097,0.538-0.42,0.892-0.522
			c0.248,0.19,0.564,0.041,0.862,0.102c0.177,0.111,0.269,0.344,0.574,0.34c0.142-0.002,0.253,0.169,0.339,0.292
			c0.173,0.246,0.245,0.564,0.617,0.662c0.173,0.045,0.067,0.28,0.259,0.325c-0.083,0.075-0.154,0.12-0.127,0.241
			c0.442,0.045,0.426,0.591,0.852,0.675c0.028,0.2-0.212,0.227-0.245,0.373c0.025,0.225,0.242,0.319,0.375,0.452
			c-0.026,0.206-0.186,0.109-0.331,0.15c-0.085,0.1-0.198,0.233-0.281,0.33c-0.206-0.012-0.362,0.043-0.428-0.125
			c-0.078,0.062-0.118,0.138-0.268,0.112C21.696,19.199,21.513,19.031,21.184,18.832c-0.096,0.018-0.06,0.061-0.056,0.059
			c0.054-0.031,0.189,0.068,0.164-0.047C21.272,18.752,21.151,18.756,21.184,18.832z M20.809,18.498
			c-0.04-0.053-0.081-0.053-0.122,0C20.728,18.55,20.769,18.55,20.809,18.498z"/>
		<path style="fill:#ffffff;" d="M17.302,23.873c0.121,0,0.223,0,0.369,0c0.114,0.136,0.286,0.252,0.565,0.33
			c0.307-0.085,0.646,0.217,1.034,0.109c0.022,0.263,0.387,0.233,0.433,0.47c0.023,0.087-0.098,0.101-0.114,0.184
			c0.184,0.081,0.214,0.283,0.336,0.429c-0.092,0.156-0.212,0.311-0.248,0.506c-0.138,0-0.259,0-0.399,0
			c-0.133,0.32-0.418,0.536-0.694,0.733c-0.263,0.188-0.398,0.478-0.644,0.61c-0.43,0.041-0.596,0.345-0.984,0.568
			c-0.091,0-0.325,0-0.595,0c0.011-0.44,0.61-0.73,0.325-1.232c-0.177,0.034-0.334,0.163-0.524,0.132
			c-0.02,0.072-0.035,0.123-0.056,0.195c-0.212,0-0.432,0-0.696,0c-0.044-0.02-0.006-0.11-0.04-0.168
			c-0.091-0.081-0.201-0.012-0.27-0.035c-0.246-0.16-0.386-0.388-0.664-0.498c-0.214-0.085-0.187-0.452-0.515-0.443
			c-0.048-0.159,0.086-0.209,0.164-0.296c0.448-0.043,0.92,0.086,1.35-0.153c0.099-0.004,0.065-0.093,0.097-0.16
			c0.498-0.08,0.886-0.392,1.356-0.531C17.025,24.373,17.155,24.139,17.302,23.873z"/>
		<path style="fill:#ffffff;" d="M16.992,28.289c0.098,0,0.277,0,0.47,0c0.133,0.309,0.398,0.509,0.636,0.732c0,0.224,0,0.449,0,0.715
			c-0.662,0.347-1.358,0.322-2.113,0.113c0.059-0.205,0.224-0.379,0.138-0.577c-0.034-0.079-0.123-0.138-0.212-0.231
			c-0.162,0.177-0.503,0.064-0.569,0.364c-0.424,0.097-0.802,0.32-1.252,0.363c-0.234,0.023-0.341-0.176-0.596-0.117
			c0.054-0.055,0.45-0.459,0.45-0.459c0.158-0.1,0.348-0.149,0.505-0.236c0.221-0.122,0.483-0.194,0.587-0.489
			c0.091-0.258,0.475-0.309,0.667-0.517c0.206,0,0.41,0,0.569,0C16.513,28.062,16.716,28.158,16.992,28.289z"/>
		<path style="fill:#ffffff;" d="M13.586,40.614c0.195,0.128,0.257,0.261,0.16,0.448C13.549,40.967,13.491,40.832,13.586,40.614z"/>
		<path style="fill:#ffffff;" d="M14.021,42.314c0.241,0.06,0.241,0.06,0.383,0.27c-0.031,0.051-0.068,0.09-0.196,0.051
			C14.163,42.557,14.094,42.44,14.021,42.314z"/>
		<path style="fill:#ffffff;" d="M5.659,81.58c-0.019,0.113-0.106,0.168-0.201,0.216c-0.073-0.056-0.048-0.119-0.021-0.202
			C5.512,81.589,5.585,81.585,5.659,81.58z"/>
		<path style="fill:#ffffff;" d="M11.447,13.915c0.011,0.054-0.017,0.089-0.073,0.1c-0.01,0.002-0.038-0.025-0.036-0.033
			C11.351,13.931,11.388,13.906,11.447,13.915z"/>
		<path style="fill:#ffffff;" d="M14.035,42.318c-0.085,0.003-0.126-0.035-0.123-0.113C13.997,42.202,14.038,42.239,14.035,42.318z"/>
		<path style="fill:#ffffff;" d="M13.911,42.204c-0.059,0.01-0.096-0.015-0.109-0.067c-0.002-0.009,0.027-0.035,0.036-0.033
			C13.894,42.115,13.921,42.15,13.911,42.204z"/>
	</g>
</g>
</svg>
